<?xml version="1.0" encoding="utf-8"?>
<!-- Svg Vector Icons : http://www.onlinewebfonts.com/icon -->
<!DOCTYPE svg PUBLIC "-//W3C//DTD SVG 1.1//EN" "http://www.w3.org/Graphics/SVG/1.1/DTD/svg11.dtd">
<svg version="1.1" xmlns="http://www.w3.org/2000/svg" xmlns:xlink="http://www.w3.org/1999/xlink" x="0px" y="0px" viewBox="0 0 1000 1000" enable-background="new 0 0 1000 1000" xml:space="preserve">
<metadata> Svg Vector Icons : http://www.onlinewebfonts.com/icon </metadata>
<g><g transform="translate(0.000000,511.000000) scale(0.100000,-0.100000)"><path d="M8576.8,2754.7c-457.7-32.6-1038-145.6-1624.1-314.1c-450.1-132.1-497.9-147.5-497.9-164.7c0-7.7,38.3-36.4,86.2-63.2c46-28.7,141.7-93.8,210.7-147.5l124.5-95.8l157.1,21.1c505.6,63.2,942.3-23,1124.2-222.2c352.4-379.2-13.4-1022.7-1005.5-1769.6C5389.9-1332.3,2647.3-2175,1906.1-1613.9c-136,103.4-191.5,222.2-189.6,406c1.9,101.5,13.4,174.3,44,249c69,166.6,241.3,409.9,436.7,612.9l178.1,185.8l1.9,151.3c0,84.3,7.7,199.2,15.3,256.6c9.6,57.5,13.4,107.3,11.5,111.1c-7.7,9.6-373.5-235.6-632-423.3C983-637.1,366.3-1271,180.5-1700c-199.2-459.6-30.6-723.9,524.8-819.7c718.2-126.4,1997.6,120.7,3460.8,664.6C6246-1081.4,8425.5,226.7,9350.5,1253.2c519,576.5,678,1030.4,444.3,1264c-134.1,136-337.1,204.9-687.6,239.4C8879.4,2777.7,8881.3,2777.7,8576.8,2754.7z" style="fill:#ffffff"/><path d="M4809.6,2239.5c-371.5-47.9-819.7-229.8-1124.2-457.7c-639.7-476.9-1001.6-1287-927-2072.2c34.5-365.8,160.9-752.7,333.2-1020.8l70.9-113l99.6,13.4c153.2,17.2,618.6,136,919.3,233.7c1082.1,352.4,2147,915.5,2959,1560.9c116.8,93.8,195.4,170.4,195.4,189.6c0,61.3-111.1,331.3-201.1,488.4c-344.7,601.4-927,1018.9-1606.9,1149.1C5332.4,2249.1,4993.4,2262.5,4809.6,2239.5z" style="fill:#ffffff"/><path d="M7077.2-828.6c-917.4-528.6-1832.9-955.7-2918.8-1363.6l-67-24.9l157-61.3c270-103.4,446.2-137.9,760.3-149.4c218.3-7.7,331.3-1.9,469.2,21.1c505.6,88.1,955.7,329.4,1313.8,702.9c181.9,191.5,281.5,333.2,396.4,566.9c86.2,172.4,174.3,413.7,162.8,444.3C7347.2-683.1,7224.6-744.3,7077.2-828.6z" style="fill:#ffffff"/></g></g>
</svg>